<svg id='wave' preserveAspectRatio='none' viewBox="0 0 512 100" xmlns="http://www.w3.org/2000/svg" height="100" width="512">
  <defs>
      <linearGradient id="Gradient2" x1="0" x2="1" y1="0" y2="0">
        <stop id='progress-base' offset="0%"/>
        <stop id='progress-fill' class='' offset="0%"/>
        <stop id='progress-trail' offset='0%' stop-color='transparent'/>
        <!-- <stop offset="50%" stop-color="black" stop-opacity="0"/> -->
        <!-- <stop offset="100%" stop-color="black"/> -->
      </linearGradient>
  </defs>
    <polygon id='polygon' stroke-width=".65" stroke='black' fill="url(#Gradient2)" points="0.0,50.0 0.5,50.00 1.5,49.99 2.5,49.52 3.5,49.89 4.5,49.61 5.5,49.73 6.5,49.62 7.5,49.83 8.5,49.64 9.5,49.36 10.5,49.45 11.5,49.25 12.5,49.51 13.5,49.35 14.5,49.19 15.5,38.50 16.5,35.54 17.5,30.64 18.5,19.77 19.5,36.09 20.5,47.76 21.5,47.57 22.5,29.71 23.5,12.90 24.5,44.98 25.5,48.56 26.5,49.55 27.5,45.51 28.5,47.38 29.5,48.42 30.5,48.16 31.5,48.95 32.5,48.93 33.5,49.17 34.5,49.42 35.5,49.24 36.5,49.31 37.5,49.41 38.5,49.48 39.5,49.44 40.5,49.70 41.5,49.50 42.5,49.56 43.5,49.50 44.5,49.58 45.5,49.51 46.5,49.63 47.5,49.63 48.5,49.29 49.5,49.72 50.5,49.57 51.5,49.68 52.5,49.67 53.5,49.71 54.5,49.70 55.5,49.56 56.5,49.53 57.5,49.41 58.5,32.29 59.5,24.46 60.5,24.90 61.5,29.27 62.5,35.18 63.5,25.54 64.5,31.47 65.5,40.75 66.5,40.03 67.5,42.84 68.5,41.15 69.5,31.89 70.5,40.92 71.5,41.25 72.5,44.50 73.5,46.44 74.5,43.39 75.5,16.52 76.5,38.72 77.5,48.51 78.5,46.75 79.5,49.60 80.5,38.08 81.5,33.04 82.5,28.91 83.5,18.31 84.5,18.21 85.5,36.07 86.5,24.97 87.5,30.12 88.5,33.60 89.5,46.81 90.5,49.03 91.5,49.48 92.5,36.71 93.5,26.40 94.5,28.18 95.5,33.10 96.5,28.54 97.5,47.33 98.5,48.71 99.5,49.08 100.5,25.03 101.5,29.12 102.5,44.23 103.5,49.08 104.5,49.51 105.5,48.31 106.5,46.51 107.5,45.97 108.5,47.08 109.5,32.46 110.5,44.33 111.5,48.91 112.5,49.30 113.5,49.61 114.5,37.22 115.5,31.81 116.5,32.47 117.5,38.11 118.5,45.46 119.5,47.49 120.5,45.05 121.5,43.17 122.5,45.30 123.5,49.07 124.5,49.13 125.5,38.39 126.5,37.31 127.5,48.32 128.5,49.31 129.5,46.36 130.5,44.28 131.5,46.15 132.5,47.59 133.5,48.74 134.5,49.25 135.5,49.39 136.5,49.45 137.5,49.57 138.5,49.49 139.5,49.64 140.5,49.18 141.5,49.74 142.5,49.65 143.5,49.63 144.5,49.65 145.5,49.62 146.5,49.61 147.5,49.29 148.5,49.70 149.5,49.58 150.5,49.48 151.5,49.50 152.5,49.46 153.5,49.36 154.5,49.54 155.5,49.25 156.5,49.38 157.5,49.29 158.5,49.48 159.5,49.15 160.5,49.20 161.5,49.54 162.5,49.52 163.5,49.77 164.5,49.75 165.5,49.58 166.5,42.31 167.5,9.82 168.5,5.67 169.5,1.39 170.5,26.17 171.5,45.79 172.5,48.58 173.5,48.74 174.5,32.49 175.5,30.57 176.5,37.60 177.5,44.02 178.5,48.17 179.5,49.17 180.5,49.55 181.5,46.91 182.5,34.42 183.5,36.75 184.5,25.09 185.5,28.94 186.5,26.80 187.5,32.56 188.5,47.12 189.5,49.18 190.5,39.55 191.5,45.53 192.5,48.16 193.5,45.86 194.5,33.27 195.5,37.68 196.5,36.54 197.5,26.94 198.5,23.02 199.5,23.61 200.5,39.49 201.5,48.14 202.5,47.21 203.5,41.89 204.5,39.48 205.5,40.62 206.5,33.64 207.5,29.99 208.5,31.87 209.5,36.70 210.5,45.94 211.5,48.02 212.5,30.79 213.5,28.50 214.5,36.87 215.5,47.91 216.5,47.46 217.5,42.08 218.5,41.02 219.5,42.55 220.5,46.12 221.5,49.63 222.5,48.49 223.5,44.85 224.5,25.64 225.5,20.97 226.5,25.43 227.5,37.21 228.5,34.58 229.5,28.92 230.5,28.24 231.5,44.52 232.5,37.68 233.5,32.90 234.5,30.74 235.5,32.23 236.5,35.11 237.5,44.09 238.5,49.08 239.5,49.26 240.5,37.98 241.5,29.42 242.5,33.89 243.5,34.99 244.5,37.99 245.5,41.00 246.5,43.84 247.5,45.72 248.5,49.03 249.5,49.53 250.5,49.29 251.5,38.05 252.5,35.48 253.5,33.34 254.5,42.71 255.5,47.08 256.5,48.11 257.5,41.85 258.5,40.48 259.5,37.43 260.5,38.99 261.5,35.32 262.5,33.44 263.5,35.36 264.5,37.22 265.5,48.44 266.5,48.89 267.5,45.82 268.5,45.12 269.5,44.60 270.5,44.11 271.5,43.10 272.5,30.59 273.5,30.16 274.5,29.17 275.5,32.47 276.5,45.75 277.5,48.54 278.5,43.63 279.5,39.40 280.5,48.77 281.5,44.70 282.5,37.73 283.5,36.20 284.5,34.67 285.5,35.28 286.5,36.87 287.5,46.56 288.5,48.70 289.5,49.45 290.5,49.52 291.5,49.53 292.5,49.57 293.5,49.32 294.5,49.50 295.5,49.45 296.5,49.14 297.5,49.43 298.5,49.15 299.5,49.15 300.5,49.07 301.5,49.24 302.5,49.37 303.5,49.16 304.5,49.41 305.5,49.31 306.5,49.33 307.5,49.43 308.5,49.31 309.5,49.51 310.5,49.38 311.5,49.48 312.5,49.44 313.5,49.45 314.5,49.46 315.5,49.49 316.5,49.46 317.5,49.87 318.5,49.70 319.5,49.80 320.5,49.69 321.5,49.87 322.5,49.54 323.5,49.71 324.5,44.29 325.5,41.28 326.5,41.52 327.5,41.56 328.5,44.52 329.5,39.47 330.5,34.69 331.5,31.37 332.5,31.99 333.5,43.63 334.5,45.92 335.5,35.92 336.5,29.15 337.5,30.65 338.5,32.03 339.5,33.72 340.5,38.13 341.5,30.20 342.5,33.98 343.5,33.80 344.5,38.34 345.5,41.39 346.5,48.53 347.5,39.24 348.5,40.87 349.5,36.71 350.5,29.38 351.5,19.57 352.5,20.48 353.5,34.42 354.5,35.69 355.5,34.50 356.5,33.60 357.5,36.98 358.5,47.81 359.5,46.69 360.5,24.91 361.5,31.02 362.5,48.19 363.5,48.88 364.5,49.42 365.5,49.46 366.5,45.62 367.5,29.40 368.5,27.30 369.5,28.41 370.5,32.46 371.5,47.69 372.5,49.06 373.5,30.34 374.5,38.39 375.5,43.89 376.5,48.71 377.5,48.93 378.5,46.51 379.5,45.63 380.5,45.70 381.5,36.30 382.5,38.70 383.5,48.32 384.5,49.09 385.5,44.95 386.5,36.32 387.5,39.21 388.5,40.15 389.5,41.04 390.5,46.08 391.5,46.53 392.5,42.51 393.5,40.09 394.5,49.11 395.5,49.48 396.5,49.65 397.5,46.79 398.5,48.84 399.5,49.07 400.5,49.04 401.5,49.63 402.5,49.61 403.5,49.70 404.5,49.72 405.5,49.62 406.5,49.56 407.5,49.83 408.5,49.39 409.5,49.47 410.5,49.61 411.5,49.46 412.5,49.32 413.5,49.44 414.5,49.55 415.5,49.40 416.5,49.25 417.5,42.27 418.5,41.30 419.5,39.79 420.5,41.84 421.5,41.44 422.5,38.24 423.5,25.22 424.5,10.52 425.5,42.14 426.5,47.69 427.5,42.71 428.5,31.41 429.5,28.52 430.5,31.18 431.5,40.17 432.5,38.83 433.5,38.13 434.5,47.65 435.5,37.04 436.5,30.33 437.5,43.23 438.5,47.21 439.5,48.90 440.5,49.28 441.5,43.02 442.5,33.72 443.5,42.96 444.5,41.43 445.5,39.24 446.5,36.73 447.5,40.83 448.5,38.98 449.5,42.02 450.5,48.73 451.5,48.48 452.5,43.74 453.5,41.21 454.5,42.93 455.5,46.58 456.5,48.80 457.5,49.62 458.5,49.63 459.5,49.67 460.5,49.55 461.5,49.57 462.5,49.51 463.5,49.74 464.5,49.63 465.5,49.61 466.5,49.57 467.5,49.53 468.5,49.64 469.5,49.56 470.5,49.69 471.5,49.57 472.5,49.47 473.5,49.63 474.5,43.66 475.5,38.82 476.5,36.88 477.5,38.00 478.5,41.09 479.5,45.35 480.5,48.54 481.5,42.88 482.5,24.88 483.5,22.48 484.5,39.05 485.5,47.42 486.5,49.19 487.5,48.41 488.5,45.75 489.5,45.49 490.5,43.54 491.5,39.70 492.5,49.23 493.5,45.86 494.5,29.98 495.5,30.52 496.5,45.10 497.5,47.43 498.5,48.98 499.5,49.35 500.5,49.40 501.5,49.52 502.5,49.44 503.5,49.64 504.5,49.68 505.5,49.37 506.5,49.64 507.5,49.84 508.5,49.89 509.5,49.75 510.5,49.86 511.5,49.63 512.0,50.0 511.5,50.28 510.5,50.30 509.5,50.28 508.5,50.45 507.5,50.45 506.5,50.12 505.5,50.14 504.5,50.42 503.5,50.14 502.5,50.64 501.5,50.57 500.5,50.47 499.5,50.47 498.5,51.46 497.5,52.29 496.5,55.53 495.5,63.48 494.5,65.31 493.5,54.06 492.5,50.97 491.5,58.64 490.5,57.49 489.5,53.72 488.5,53.20 487.5,51.18 486.5,50.86 485.5,52.60 484.5,62.23 483.5,69.67 482.5,66.15 481.5,56.01 480.5,51.72 479.5,54.84 478.5,60.94 477.5,61.75 476.5,62.70 475.5,61.91 474.5,55.67 473.5,50.63 472.5,50.35 471.5,50.37 470.5,50.64 469.5,50.45 468.5,50.28 467.5,50.29 466.5,50.34 465.5,50.37 464.5,50.39 463.5,50.32 462.5,50.50 461.5,50.31 460.5,50.40 459.5,50.36 458.5,50.37 457.5,50.33 456.5,50.74 455.5,53.23 454.5,57.60 453.5,59.89 452.5,55.40 451.5,51.56 450.5,51.16 449.5,59.59 448.5,64.06 447.5,62.52 446.5,62.02 445.5,62.01 444.5,59.86 443.5,58.39 442.5,61.71 441.5,53.81 440.5,50.49 439.5,51.26 438.5,52.05 437.5,59.32 436.5,66.47 435.5,60.53 434.5,52.18 433.5,58.49 432.5,63.62 431.5,62.65 430.5,62.40 429.5,65.79 428.5,62.43 427.5,58.19 426.5,51.91 425.5,56.47 424.5,70.29 423.5,71.07 422.5,61.84 421.5,56.66 420.5,55.84 419.5,60.29 418.5,60.42 417.5,56.68 416.5,50.63 415.5,50.39 414.5,50.51 413.5,50.77 412.5,50.53 411.5,50.67 410.5,50.54 409.5,50.78 408.5,50.26 407.5,50.45 406.5,50.34 405.5,50.18 404.5,50.16 403.5,50.39 402.5,50.29 401.5,50.50 400.5,50.67 399.5,51.32 398.5,51.10 397.5,53.13 396.5,50.41 395.5,50.47 394.5,51.11 393.5,58.06 392.5,57.80 391.5,54.10 390.5,53.99 389.5,58.85 388.5,62.79 387.5,65.14 386.5,61.79 385.5,54.15 384.5,51.00 383.5,51.62 382.5,56.48 381.5,58.67 380.5,54.89 379.5,54.26 378.5,53.52 377.5,50.69 376.5,51.34 375.5,53.95 374.5,59.56 373.5,64.61 372.5,51.17 371.5,52.46 370.5,65.86 369.5,66.44 368.5,70.46 367.5,63.28 366.5,53.68 365.5,50.34 364.5,50.68 363.5,51.13 362.5,51.63 361.5,66.67 360.5,65.90 359.5,52.24 358.5,51.39 357.5,60.18 356.5,62.62 355.5,66.57 354.5,68.11 353.5,69.40 352.5,70.26 351.5,64.36 350.5,65.06 349.5,62.58 348.5,61.13 347.5,61.74 346.5,51.10 345.5,58.16 344.5,64.38 343.5,59.41 342.5,62.04 341.5,66.81 340.5,60.89 339.5,63.02 338.5,64.47 337.5,63.82 336.5,66.40 335.5,64.94 334.5,54.24 333.5,56.16 332.5,63.69 331.5,67.75 330.5,65.01 329.5,58.02 328.5,55.84 327.5,55.83 326.5,57.25 325.5,55.91 324.5,55.74 323.5,50.48 322.5,50.25 321.5,50.18 320.5,50.33 319.5,50.25 318.5,50.21 317.5,50.19 316.5,50.36 315.5,50.47 314.5,50.58 313.5,50.52 312.5,50.77 311.5,50.67 310.5,50.30 309.5,50.52 308.5,50.86 307.5,50.70 306.5,50.65 305.5,50.39 304.5,50.67 303.5,50.75 302.5,50.67 301.5,50.90 300.5,50.85 299.5,50.83 298.5,50.85 297.5,50.67 296.5,50.76 295.5,50.64 294.5,50.56 293.5,50.54 292.5,50.71 291.5,50.39 290.5,50.51 289.5,50.77 288.5,51.07 287.5,53.77 286.5,61.76 285.5,62.99 284.5,64.25 283.5,66.48 282.5,61.90 281.5,54.16 280.5,51.63 279.5,59.12 278.5,53.18 277.5,51.41 276.5,55.83 275.5,63.01 274.5,69.25 273.5,64.58 272.5,62.72 271.5,54.67 270.5,55.51 269.5,57.27 268.5,57.28 267.5,53.35 266.5,50.79 265.5,52.12 264.5,59.59 263.5,64.97 262.5,62.45 261.5,60.90 260.5,61.66 259.5,62.67 258.5,62.08 257.5,60.11 256.5,52.11 255.5,52.88 254.5,56.42 253.5,59.86 252.5,60.26 251.5,61.34 250.5,50.59 249.5,50.52 248.5,51.24 247.5,55.00 246.5,56.21 245.5,56.41 244.5,59.48 243.5,62.08 242.5,61.02 241.5,61.83 240.5,60.54 239.5,50.92 238.5,50.84 237.5,55.96 236.5,63.51 235.5,62.51 234.5,61.89 233.5,59.46 232.5,58.08 231.5,55.24 230.5,61.64 229.5,62.77 228.5,60.31 227.5,59.58 226.5,62.23 225.5,62.44 224.5,62.93 223.5,54.31 222.5,53.03 221.5,50.64 220.5,53.64 219.5,57.65 218.5,61.76 217.5,56.69 216.5,53.43 215.5,52.14 214.5,61.15 213.5,66.58 212.5,63.03 211.5,51.27 210.5,54.01 209.5,61.60 208.5,63.16 207.5,64.14 206.5,63.19 205.5,59.16 204.5,59.29 203.5,59.65 202.5,53.62 201.5,52.42 200.5,59.42 199.5,67.47 198.5,66.24 197.5,67.40 196.5,62.27 195.5,62.49 194.5,64.32 193.5,52.44 192.5,50.93 191.5,54.74 190.5,54.97 189.5,51.04 188.5,52.64 187.5,60.61 186.5,68.03 185.5,67.74 184.5,67.62 183.5,58.69 182.5,63.98 181.5,52.36 180.5,50.22 179.5,50.40 178.5,52.65 177.5,59.00 176.5,63.90 175.5,64.70 174.5,65.15 173.5,51.73 172.5,50.79 171.5,55.07 170.5,73.92 169.5,78.72 168.5,76.92 167.5,72.21 166.5,56.90 165.5,50.41 164.5,50.21 163.5,50.40 162.5,50.14 161.5,50.53 160.5,50.65 159.5,51.05 158.5,50.59 157.5,50.71 156.5,50.41 155.5,50.46 154.5,50.57 153.5,50.67 152.5,50.40 151.5,50.55 150.5,50.44 149.5,50.66 148.5,50.42 147.5,50.33 146.5,50.40 145.5,50.32 144.5,50.49 143.5,50.52 142.5,50.66 141.5,50.67 140.5,50.24 139.5,50.71 138.5,50.57 137.5,50.67 136.5,50.37 135.5,50.43 134.5,50.68 133.5,51.40 132.5,52.05 131.5,53.90 130.5,53.93 129.5,55.51 128.5,50.49 127.5,52.42 126.5,60.22 125.5,59.91 124.5,51.07 123.5,50.80 122.5,54.08 121.5,57.17 120.5,53.31 119.5,53.28 118.5,55.56 117.5,58.28 116.5,65.30 115.5,67.72 114.5,58.61 113.5,50.59 112.5,50.59 111.5,51.20 110.5,52.20 109.5,62.11 108.5,53.08 107.5,54.56 106.5,53.59 105.5,53.69 104.5,50.53 103.5,51.26 102.5,53.35 101.5,65.28 100.5,69.10 99.5,50.04 98.5,51.05 97.5,52.15 96.5,70.48 95.5,64.53 94.5,64.60 93.5,66.15 92.5,58.91 91.5,50.81 90.5,51.34 89.5,53.47 88.5,61.16 87.5,65.66 86.5,67.72 85.5,61.53 84.5,64.91 83.5,65.10 82.5,65.93 81.5,65.50 80.5,61.23 79.5,50.42 78.5,53.64 77.5,51.91 76.5,55.15 75.5,75.77 74.5,56.50 73.5,53.29 72.5,55.72 71.5,62.73 70.5,59.80 69.5,67.51 68.5,57.41 67.5,56.76 66.5,57.41 65.5,58.59 64.5,62.69 63.5,66.55 62.5,60.61 61.5,64.57 60.5,69.73 59.5,68.93 58.5,62.56 57.5,50.05 56.5,50.45 55.5,50.07 54.5,50.26 53.5,50.21 52.5,50.34 51.5,50.29 50.5,50.34 49.5,50.49 48.5,50.47 47.5,50.35 46.5,50.57 45.5,50.52 44.5,50.37 43.5,50.49 42.5,50.51 41.5,50.48 40.5,50.42 39.5,50.39 38.5,50.58 37.5,50.50 36.5,50.72 35.5,50.72 34.5,50.73 33.5,50.95 32.5,50.98 31.5,50.91 30.5,51.52 29.5,51.30 28.5,52.93 27.5,54.10 26.5,51.12 25.5,51.70 24.5,56.41 23.5,74.40 22.5,68.06 21.5,52.13 20.5,52.61 19.5,63.10 18.5,78.57 17.5,73.69 16.5,63.47 15.5,63.39 14.5,50.88 13.5,50.74 12.5,50.57 11.5,50.62 10.5,50.53 9.5,50.54 8.5,50.59 7.5,50.32 6.5,50.34 5.5,50.37 4.5,50.21 3.5,50.45 2.5,49.81 1.5,50.27 0.5,50.00 "></polygon>
</svg>
