<svg id='wave' preserveAspectRatio='none' viewBox="0 0 512 100" xmlns="http://www.w3.org/2000/svg" height="100" width="512">
    <polygon points="0.0,512.0 0.5,511.40 1.5,510.23 2.5,509.19 3.5,508.17 4.5,506.88 5.5,505.05 6.5,502.49 7.5,498.86 8.5,493.71 9.5,486.78 10.5,478.10 11.5,467.82 12.5,455.92 13.5,442.41 14.5,427.70 15.5,412.41 16.5,396.62 17.5,379.96 18.5,362.23 19.5,343.32 20.5,323.85 21.5,305.14 22.5,288.46 23.5,274.96 24.5,265.55 25.5,260.88 26.5,261.26 27.5,266.82 28.5,277.57 29.5,293.13 30.5,312.74 31.5,335.52 32.5,360.51 33.5,386.63 34.5,412.55 35.5,436.94 36.5,458.86 37.5,477.60 38.5,492.42 39.5,502.67 40.5,508.56 41.5,511.05 42.5,511.40 43.5,510.97 44.5,510.48 45.5,509.95 46.5,509.41 47.5,508.23 48.5,505.22 49.5,499.48 50.5,490.34 51.5,477.45 52.5,460.99 53.5,441.48 54.5,419.77 55.5,397.21 56.5,375.32 57.5,355.60 58.5,339.09 59.5,326.31 60.5,317.68 61.5,313.64 62.5,314.48 63.5,319.76 64.5,328.51 65.5,339.48 66.5,351.25 67.5,362.30 68.5,370.88 69.5,375.43 70.5,375.14 71.5,370.42 72.5,362.39 73.5,352.11 74.5,340.93 75.5,330.11 76.5,320.47 77.5,312.66 78.5,307.05 79.5,303.55 80.5,301.76 81.5,301.06 82.5,300.90 83.5,301.31 84.5,302.26 85.5,302.95 86.5,302.15 87.5,299.22 88.5,294.52 89.5,288.42 90.5,281.24 91.5,273.90 92.5,267.61 93.5,263.49 94.5,262.19 95.5,264.10 96.5,269.54 97.5,278.57 98.5,290.44 99.5,303.95 100.5,318.09 101.5,332.23 102.5,346.04 103.5,358.90 104.5,369.72 105.5,377.45 106.5,381.38 107.5,381.17 108.5,377.00 109.5,369.80 110.5,360.98 111.5,351.95 112.5,343.65 113.5,337.04 114.5,333.24 115.5,332.45 116.5,334.49 117.5,339.05 118.5,345.76 119.5,354.16 120.5,363.67 121.5,373.79 122.5,384.43 123.5,395.69 124.5,407.51 125.5,419.38 126.5,430.48 127.5,440.35 128.5,449.16 129.5,457.39 130.5,465.54 131.5,473.73 132.5,481.67 133.5,489.06 134.5,495.67 135.5,501.28 136.5,505.74 137.5,509.00 138.5,510.95 139.5,511.79 140.5,512.00 141.5,512.00 142.5,511.92 143.5,511.68 144.5,511.30 145.5,510.80 146.5,510.22 147.5,509.59 148.5,508.76 149.5,507.55 150.5,506.05 151.5,504.36 152.5,502.61 153.5,500.89 154.5,499.35 155.5,497.59 156.5,494.81 157.5,490.30 158.5,483.44 159.5,473.77 160.5,460.99 161.5,444.94 162.5,425.60 163.5,403.08 164.5,377.72 165.5,350.53 166.5,323.15 167.5,297.27 168.5,274.41 169.5,256.00 170.5,243.31 171.5,236.89 172.5,236.82 173.5,242.59 174.5,252.95 175.5,266.21 176.5,280.51 177.5,294.18 178.5,305.79 179.5,314.07 180.5,318.26 181.5,318.31 182.5,314.59 183.5,307.57 184.5,298.01 185.5,287.01 186.5,275.88 187.5,265.98 188.5,258.47 189.5,253.66 190.5,251.21 191.5,250.93 192.5,252.78 193.5,256.47 194.5,261.46 195.5,267.29 196.5,273.61 197.5,280.18 198.5,286.91 199.5,293.79 200.5,300.81 201.5,307.49 202.5,312.91 203.5,316.59 204.5,318.71 205.5,319.53 206.5,319.41 207.5,319.06 208.5,319.21 209.5,320.39 210.5,323.11 211.5,327.75 212.5,334.73 213.5,344.22 214.5,355.80 215.5,368.46 216.5,380.94 217.5,392.12 218.5,401.01 219.5,406.74 220.5,408.81 221.5,407.22 222.5,402.07 223.5,393.32 224.5,381.00 225.5,365.57 226.5,347.98 227.5,329.50 228.5,311.29 229.5,294.20 230.5,278.86 231.5,265.79 232.5,255.39 233.5,247.85 234.5,243.31 235.5,241.82 236.5,243.21 237.5,247.32 238.5,254.39 239.5,264.77 240.5,278.19 241.5,293.74 242.5,310.39 243.5,327.13 244.5,343.10 245.5,357.35 246.5,369.03 247.5,377.77 248.5,383.50 249.5,386.37 250.5,386.74 251.5,384.84 252.5,380.52 253.5,373.74 254.5,364.85 255.5,354.61 256.5,344.10 257.5,334.41 258.5,326.34 259.5,320.47 260.5,317.35 261.5,317.26 262.5,319.64 263.5,323.30 264.5,327.25 265.5,330.76 266.5,333.49 267.5,335.40 268.5,336.13 269.5,335.41 270.5,333.40 271.5,330.24 272.5,326.08 273.5,321.27 274.5,316.22 275.5,311.59 276.5,308.32 277.5,306.79 278.5,307.02 279.5,309.15 280.5,313.15 281.5,318.89 282.5,326.21 283.5,334.85 284.5,344.34 285.5,354.30 286.5,364.84 287.5,376.26 288.5,388.80 289.5,402.60 290.5,417.32 291.5,432.36 292.5,447.30 293.5,461.58 294.5,474.51 295.5,485.72 296.5,495.04 297.5,502.29 298.5,507.42 299.5,510.51 300.5,511.78 301.5,512.00 302.5,512.00 303.5,512.00 304.5,512.00 305.5,512.00 306.5,512.00 307.5,511.88 308.5,511.53 309.5,510.96 310.5,510.23 311.5,509.37 312.5,508.46 313.5,507.38 314.5,505.93 315.5,503.91 316.5,501.16 317.5,497.61 318.5,493.23 319.5,488.05 320.5,482.11 321.5,475.35 322.5,467.28 323.5,457.13 324.5,444.38 325.5,428.66 326.5,410.25 327.5,390.12 328.5,369.34 329.5,349.04 330.5,330.17 331.5,313.51 332.5,299.70 333.5,289.05 334.5,281.97 335.5,278.95 336.5,280.05 337.5,284.93 338.5,292.99 339.5,303.41 340.5,315.04 341.5,326.34 342.5,336.05 343.5,343.50 344.5,348.16 345.5,349.91 346.5,349.17 347.5,346.75 348.5,343.69 349.5,340.98 350.5,339.02 351.5,337.64 352.5,336.77 353.5,336.46 354.5,337.03 355.5,339.06 356.5,342.58 357.5,347.10 358.5,351.62 359.5,354.70 360.5,355.19 361.5,352.40 362.5,345.96 363.5,335.64 364.5,322.05 365.5,306.89 366.5,291.66 367.5,277.56 368.5,265.85 369.5,257.64 370.5,253.74 371.5,254.57 372.5,259.90 373.5,269.43 374.5,282.97 375.5,300.07 376.5,319.74 377.5,340.71 378.5,361.47 379.5,380.36 380.5,396.33 381.5,408.92 382.5,418.04 383.5,423.88 384.5,426.93 385.5,428.04 386.5,428.27 387.5,428.33 388.5,427.89 389.5,426.58 390.5,424.77 391.5,422.70 392.5,420.52 393.5,418.39 394.5,416.58 395.5,415.61 396.5,416.09 397.5,418.34 398.5,422.36 399.5,427.99 400.5,435.11 401.5,443.47 402.5,452.73 403.5,462.49 404.5,472.32 405.5,481.79 406.5,490.34 407.5,497.44 408.5,502.54 409.5,505.05 410.5,504.52 411.5,501.22 412.5,496.25 413.5,489.96 414.5,481.85 415.5,471.83 416.5,460.29 417.5,447.67 418.5,434.17 419.5,419.74 420.5,404.72 421.5,389.82 422.5,375.75 423.5,363.17 424.5,352.64 425.5,344.41 426.5,338.44 427.5,334.51 428.5,332.25 429.5,331.21 430.5,331.27 431.5,332.44 432.5,334.16 433.5,335.89 434.5,337.23 435.5,337.83 436.5,337.41 437.5,336.16 438.5,334.64 439.5,333.23 440.5,332.03 441.5,331.23 442.5,331.43 443.5,333.25 444.5,336.87 445.5,342.13 446.5,348.72 447.5,356.29 448.5,364.64 449.5,373.66 450.5,383.33 451.5,393.64 452.5,404.50 453.5,415.79 454.5,427.06 455.5,437.82 456.5,448.07 457.5,457.80 458.5,466.89 459.5,475.25 460.5,482.82 461.5,489.57 462.5,495.50 463.5,500.40 464.5,503.86 465.5,505.06 466.5,502.89 467.5,496.56 468.5,486.09 469.5,472.18 470.5,455.81 471.5,437.75 472.5,418.32 473.5,397.84 474.5,377.10 475.5,357.26 476.5,339.45 477.5,324.74 478.5,314.16 479.5,308.40 480.5,307.88 481.5,312.62 482.5,322.31 483.5,336.05 484.5,352.34 485.5,369.31 486.5,385.18 487.5,398.14 488.5,407.04 489.5,412.08 490.5,414.06 491.5,414.11 492.5,412.99 493.5,411.01 494.5,408.54 495.5,406.27 496.5,405.28 497.5,406.62 498.5,410.83 499.5,417.85 500.5,427.45 501.5,439.09 502.5,451.98 503.5,465.24 504.5,477.97 505.5,489.30 506.5,498.46 507.5,505.04 508.5,509.18 509.5,511.34 510.5,512.00 511.5,512.00 100.0,512.0 "></polygon>
</svg>
